<svg xmlns="http://www.w3.org/2000/svg" width="420.81" height="372.61" viewBox="0 0 420.81 372.61">
  <g id="Layer_2" data-name="Layer 2" transform="translate(0 0.305)">
    <g id="Background_Complete" data-name="Background Complete" transform="translate(0 -0.305)">
      <rect id="Rectangle_1" data-name="Rectangle 1" width="21.68" height="0.25" transform="translate(390.02 343.54)" fill="#ebebeb"/>
      <rect id="Rectangle_2" data-name="Rectangle 2" width="34.11" height="0.25" transform="translate(272.35 338.35)" fill="#ebebeb"/>
      <rect id="Rectangle_3" data-name="Rectangle 3" width="44.53" height="0.25" transform="translate(358.38 334.26)" fill="#ebebeb"/>
      <rect id="Rectangle_4" data-name="Rectangle 4" width="11.14" height="0.25" transform="translate(123.67 339.3)" fill="#ebebeb"/>
      <rect id="Rectangle_5" data-name="Rectangle 5" width="38.39" height="0.25" transform="translate(76.38 339.3)" fill="#ebebeb"/>
      <rect id="Rectangle_6" data-name="Rectangle 6" width="27.7" height="0.25" transform="translate(28.1 335.08)" fill="#ebebeb"/>
      <path id="Path_1" data-name="Path 1" d="M198.81,282.85H5.71A5.71,5.71,0,0,1,0,277.14V5.71A5.71,5.71,0,0,1,5.71,0h193.1a5.71,5.71,0,0,1,5.7,5.71V277.14A5.71,5.71,0,0,1,198.81,282.85ZM5.71.25A5.47,5.47,0,0,0,.25,5.71V277.14a5.47,5.47,0,0,0,5.46,5.46h193.1a5.46,5.46,0,0,0,5.45-5.46V5.71A5.46,5.46,0,0,0,198.81.25Z" fill="#ebebeb"/>
      <path id="Path_2" data-name="Path 2" d="M415.1,282.85H222a5.71,5.71,0,0,1-5.7-5.71V5.71A5.71,5.71,0,0,1,222,0H415.1a5.71,5.71,0,0,1,5.71,5.71V277.14A5.71,5.71,0,0,1,415.1,282.85ZM222,.25a5.46,5.46,0,0,0-5.45,5.46V277.14A5.46,5.46,0,0,0,222,282.6H415.1a5.47,5.47,0,0,0,5.46-5.46V5.71A5.47,5.47,0,0,0,415.1.25Z" fill="#ebebeb"/>
      <path id="Path_3" data-name="Path 3" d="M177.87,145.93l.45-13.15-8.07-2.63A78,78,0,0,0,168.1,117l6.83-5-4.64-12.34-8.46.68a76.47,76.47,0,0,0-7-11.35l4.38-7.31-9-9.61-7.56,3.87A81.451,81.451,0,0,0,131.76,68L133,59.62l-12-5.45-5.5,6.45a80.54,80.54,0,0,0-13-3l-2-8.23-13.17-.45L84.65,57a80.48,80.48,0,0,0-13.19,2.15L66.38,52.3,54,56.91l.68,8.46a80.19,80.19,0,0,0-11.35,7.08l-7.28-4.38-9.64,9,3.87,7.59a77.48,77.48,0,0,0-7.8,10.85l-8.39-1.26-5.48,12,6.47,5.5a78.3,78.3,0,0,0-3,13l-8.26,2.08L3.36,140l8.1,2.64a77.4,77.4,0,0,0,2.15,13.19l-6.83,5,4.64,12.35,8.46-.69a76.472,76.472,0,0,0,7,11.35l-4.38,7.32,9,9.61,7.56-3.88A79.55,79.55,0,0,0,50,204.72l-1.26,8.39,12,5.45,5.54-6.44a82.711,82.711,0,0,0,13,3l2,8.22,13.17.45,2.61-8.06a81.568,81.568,0,0,0,13.19-2.16l5,6.81,12.35-4.61-.65-8.46a82.53,82.53,0,0,0,11.35-7.08l7.28,4.39,9.64-9-3.87-7.59a76.581,76.581,0,0,0,7.8-10.84l8.39,1.26,5.48-12-6.47-5.5a77.611,77.611,0,0,0,3-13ZM89.07,188.5A52.16,52.16,0,1,1,143,138.17,52.16,52.16,0,0,1,89.07,188.5Z" fill="#ebebeb"/>
      <path id="Path_4" data-name="Path 4" d="M402.75,102.47l3.31-3.09-1.32-2.61A27.079,27.079,0,0,0,407.43,93l2.9.44,1.88-4.14L410,87.42a26.729,26.729,0,0,0,1-4.48l2.85-.72.15-4.54-2.79-.9a28.175,28.175,0,0,0-.73-4.55l2.34-1.75-1.6-4.25-2.91.23a28.249,28.249,0,0,0-2.43-3.92l1.51-2.5-3.1-3.33-2.6,1.34a27.522,27.522,0,0,0-3.75-2.7l.42-2.89-4.13-1.89-1.9,2.23a27.831,27.831,0,0,0-4.49-1l-.71-2.85-4.53-.16-.91,2.8a26.16,26.16,0,0,0-4.55.74l-1.74-2.36-4.26,1.59.24,2.92a27.122,27.122,0,0,0-3.92,2.43L365,55.37l-3.31,3.09L363,61.08a26.749,26.749,0,0,0-2.69,3.74l-2.9-.44-1.88,4.15,2.23,1.89a26.834,26.834,0,0,0-1.05,4.49l-2.85.71-.15,4.54,2.79.9a28.475,28.475,0,0,0,.73,4.56l-2.35,1.73,1.6,4.26,2.92-.22a28.152,28.152,0,0,0,2.43,3.91l-1.51,2.51,3.1,3.32L366,99.8a28.239,28.239,0,0,0,3.74,2.69l-.42,2.89,4.13,1.89,1.9-2.22a29.062,29.062,0,0,0,4.5,1l.7,2.84,4.54.16.91-2.79a27.14,27.14,0,0,0,4.55-.74l1.74,2.35,4.26-1.59-.24-2.92a26.79,26.79,0,0,0,3.92-2.43ZM379.13,83.34a6.47,6.47,0,1,1,4.511,2.052,6.47,6.47,0,0,1-4.511-2.052Z" fill="#ebebeb"/>
      <path id="Path_5" data-name="Path 5" d="M281.78,237.38l-10.34-7.14h0a57.33,57.33,0,0,0-4.16-10.77l2.65-10.4-15-16.07-10.56,1.94A57.08,57.08,0,0,0,233.91,190h0l-6.42-10.81-22-.76-7.14,10.34h0A57.5,57.5,0,0,0,187.56,193l-10.39-2.65-16.07,15,1.9,10.51h0a55.06,55.06,0,0,0-4.89,10.49l-10.81,6.42-.75,22,10.35,7.15a55,55,0,0,0,4.15,10.82h0l-2.64,10.37,15,16.06,10.49-1.92a56.6,56.6,0,0,0,10.55,4.89h0l6.41,10.79,22,.75L230,303.33a57.247,57.247,0,0,0,10.85-4.16h0l10.35,2.64,16.06-15-1.93-10.54a56.062,56.062,0,0,0,4.89-10.5h0L281,259.35Zm-68.45,33.39a24.71,24.71,0,1,1,25.55-23.85,24.71,24.71,0,0,1-25.55,23.85Z" fill="#ebebeb"/>
      <path id="Path_6" data-name="Path 6" d="M305.34,175h-.07L288,174.41a2.14,2.14,0,0,1-1.74-1l-4.66-7.86a47.888,47.888,0,0,1-7.29-3.37l-7.5,1.37a2.11,2.11,0,0,1-1.93-.64L253,150.22a2.14,2.14,0,0,1-.51-2l1.89-7.41a47.7,47.7,0,0,1-2.86-7.47l-7.53-5.2a2.14,2.14,0,0,1-.91-1.81l.6-17.32a2.08,2.08,0,0,1,1-1.74l7.86-4.68a47.447,47.447,0,0,1,3.46-7.2l-1.38-7.54a2.1,2.1,0,0,1,.64-1.92L267.88,74.1a2.1,2.1,0,0,1,2-.5l7.43,1.9a47.56,47.56,0,0,1,7.45-2.88l5.2-7.52a2,2,0,0,1,1.81-.91l17.31.59a2.16,2.16,0,0,1,1.75,1l4.67,7.87a47.4,47.4,0,0,1,7.23,3.37l7.55-1.38a2.09,2.09,0,0,1,1.92.64L344,89a2.11,2.11,0,0,1,.5,2l-1.89,7.44a47.509,47.509,0,0,1,2.87,7.45L353,111a2.08,2.08,0,0,1,.91,1.81l-.59,17.32a2.11,2.11,0,0,1-1,1.75l-7.87,4.67A45.62,45.62,0,0,1,341,143.8l1.38,7.54a2.12,2.12,0,0,1-.63,1.92l-12.67,11.82a2.08,2.08,0,0,1-2,.51l-7.4-1.89a47.109,47.109,0,0,1-7.49,2.87L307,174.09a2.13,2.13,0,0,1-1.66.91Zm-16.09-4.77,15,.51,5-7.2a2.12,2.12,0,0,1,1.19-.84,42.848,42.848,0,0,0,8.15-3.12h0a2.09,2.09,0,0,1,1.46-.15l7,1.79,11-10.25-1.31-7.17a2.1,2.1,0,0,1,.27-1.47,43,43,0,0,0,3.65-7.84,2.14,2.14,0,0,1,.94-1.17l7.52-4.47.51-15-7.2-5a2.08,2.08,0,0,1-.8-1.07.838.838,0,0,1-.05-.17,42.381,42.381,0,0,0-3.11-8.05,2.12,2.12,0,0,1-.17-1.48L340.12,91,329.87,80l-7.19,1.32a2.1,2.1,0,0,1-1.47-.27,42.61,42.61,0,0,0-7.84-3.66,2.23,2.23,0,0,1-.44-.21,2,2,0,0,1-.71-.72L307.75,69l-15-.51-5,7.2a2.14,2.14,0,0,1-1.24.86,42.279,42.279,0,0,0-8,3.11,2.11,2.11,0,0,1-1.48.16L269.91,78l-11,10.25,1.31,7.17a2.11,2.11,0,0,1-.19,1.33l-.09.17a41.792,41.792,0,0,0-3.66,7.85,2.16,2.16,0,0,1-.91,1.13l-7.53,4.47-.52,15,7.21,5a2.1,2.1,0,0,1,.84,1.18,41.521,41.521,0,0,0,3.11,8.12,1.887,1.887,0,0,1,.17.45,2,2,0,0,1,0,1l-1.8,7.05,10.25,11,7.14-1.31a2.09,2.09,0,0,1,1.45.26,43.209,43.209,0,0,0,7.89,3.66,2.15,2.15,0,0,1,1.18.94ZM314,75.41Zm-15.51,75.85h-1.11a31.55,31.55,0,1,1,1.11,0Zm0-59.09a27.26,27.26,0,1,0,.95,0Z" fill="#ebebeb"/>
      <path id="Path_7" data-name="Path 7" d="M345.23,50.37l-7.17-1.93-1.93-7.17,2.81-2.81,2.96,6.14,6.14,2.96Z" fill="#e0e0e0"/>
      <path id="Path_8" data-name="Path 8" d="M345.68,45.57a3.352,3.352,0,1,0-4.74-4.74l3.57-5.35,4.79,2.42,1.05,5Z" fill="#e0e0e0"/>
      <path id="Path_9" data-name="Path 9" d="M338.37,39l5.26-5.26,7.17,1.93,1.93,7.17-5.26,5.26-7.17-1.9Zm9.55,4.3a2.365,2.365,0,1,0,0,.03Z" fill="#f0f0f0"/>
      <path id="Path_10" data-name="Path 10" d="M52.01,241.75l3.85-1.03,1.04-3.85-1.51-1.5-1.59,3.29-3.29,1.59Z" fill="#e0e0e0"/>
      <path id="Path_11" data-name="Path 11" d="M51.77,239.18a1.8,1.8,0,1,1,2.55-2.54l-1.92-2.87-2.57,1.29-.56,2.7Z" fill="#e0e0e0"/>
      <path id="Path_12" data-name="Path 12" d="M55.69,235.67l-2.82-2.82-3.85,1-1,3.85,2.82,2.82,3.85-1ZM50.57,238a1.8,1.8,0,1,1,2.54,0,1.8,1.8,0,0,1-2.54,0Z" fill="#f0f0f0"/>
      <path id="Path_13" data-name="Path 13" d="M38.16,30.71l3.19,3.19a2.14,2.14,0,0,0,3,0h0a2.14,2.14,0,0,0,0-3l-3.2-3.2a2.14,2.14,0,0,0-3,0h0a2.14,2.14,0,0,0,.01,3.01Z" fill="#f0f0f0"/>
      <path id="Path_14" data-name="Path 14" d="M35.9,22.75a4.6,4.6,0,0,1,6,2.59,4.75,4.75,0,0,1-8.9,3.2A4.6,4.6,0,0,1,35.9,22.75Z" fill="#e0e0e0"/>
      <rect id="Rectangle_7" data-name="Rectangle 7" width="1.37" height="10.1" transform="translate(32.887 29.292) rotate(-109.76)" fill="#f0f0f0"/>
    </g>
    <g id="Shadow" transform="translate(0 -0.305)">
      <ellipse id="_Path_" data-name="&lt;Path&gt;" cx="193.89" cy="11.32" rx="193.89" ry="11.32" transform="translate(17.9 349.97)" fill="#f5f5f5"/>
    </g>
    <g id="Oops_" data-name="Oops!">
      <path id="Path_15" data-name="Path 15" d="M48.51,65.69q-1.5-6.6,1.34-11.12t9.41-6Q66,47,70.46,49.82t6,9.3a17,17,0,0,1,.17,8.12A11.57,11.57,0,0,1,73.05,73a15.54,15.54,0,0,1-7.11,3.39,17.84,17.84,0,0,1-7.89.27,11.72,11.72,0,0,1-5.89-3.5,15.67,15.67,0,0,1-3.65-7.47Zm8.34-1.85q.93,4.08,2.86,5.52A5.87,5.87,0,0,0,68,67.51c.72-1.39.73-3.59,0-6.61-.58-2.54-1.51-4.27-2.8-5.21a5.39,5.39,0,0,0-4.57-.81A5.17,5.17,0,0,0,57,57.58q-1.08,2.13-.15,6.26Z" fill="#263238"/>
      <path id="Path_16" data-name="Path 16" d="M80.39,62.39a10,10,0,0,1,1.34-8,11.56,11.56,0,0,1,7.49-4.75q5.86-1.34,9.64,1.39a10.841,10.841,0,0,1,2.69,14.27q-2.39,3.51-7.67,4.7a11.94,11.94,0,0,1-8.16-.66,9.81,9.81,0,0,1-5.33-6.95Zm7.5-1.72a6,6,0,0,0,1.94,3.62,3.55,3.55,0,0,0,5.32-1.19,6.3,6.3,0,0,0,.14-4.19,5.92,5.92,0,0,0-1.91-3.54,3.33,3.33,0,0,0-2.88-.65,3.48,3.48,0,0,0-2.42,1.87,6,6,0,0,0-.19,4.08Z" fill="#263238"/>
      <path id="Path_17" data-name="Path 17" d="M110.38,73.61l-6.14-27,7-1.6.65,2.89A9.7,9.7,0,0,1,114,44.86a7.85,7.85,0,0,1,3.43-1.69,7.21,7.21,0,0,1,6.74,1.62A12.75,12.75,0,0,1,128,51.72q1.11,4.88-.64,8a7.84,7.84,0,0,1-5.33,3.91,8.14,8.14,0,0,1-3.28.13,7.49,7.49,0,0,1-3-1.17l2.12,9.33ZM114,54.76A5.28,5.28,0,0,0,115.74,58a3.23,3.23,0,0,0,2.72.56,2.81,2.81,0,0,0,2-1.58,5.94,5.94,0,0,0,0-3.85,5.58,5.58,0,0,0-1.71-3.28,2.9,2.9,0,0,0-2.5-.6,3.12,3.12,0,0,0-2.14,1.66,5.77,5.77,0,0,0-.11,3.85Z" fill="#263238"/>
      <path id="Path_18" data-name="Path 18" d="M131.23,55.35,138.5,53a3.81,3.81,0,0,0,1.72,1.6,4,4,0,0,0,2.34.07,3.78,3.78,0,0,0,2.19-1.18,1.45,1.45,0,0,0,.37-1.34,1.38,1.38,0,0,0-1.13-1,15.47,15.47,0,0,0-3.39,0,36.059,36.059,0,0,1-5.71,0,5.9,5.9,0,0,1-3-1.38,5.5,5.5,0,0,1-1.39-6.49,6.89,6.89,0,0,1,2.62-2.79,17.25,17.25,0,0,1,5.12-1.89,18.85,18.85,0,0,1,5.28-.64,7,7,0,0,1,3.16,1,8.94,8.94,0,0,1,2.54,2.61l-6.94,2.32a2.44,2.44,0,0,0-1.28-1.3,3.84,3.84,0,0,0-2.27-.11,3.17,3.17,0,0,0-1.74.87,1.38,1.38,0,0,0-.33,1.23,1.19,1.19,0,0,0,1,.92,12.27,12.27,0,0,0,3.35-.07,23,23,0,0,1,5.82-.09,6.34,6.34,0,0,1,3.28,1.52,5.4,5.4,0,0,1,1.67,2.85,6.23,6.23,0,0,1-.28,3.52,7.1,7.1,0,0,1-2.64,3.28,16.05,16.05,0,0,1-5.77,2.31q-5.36,1.22-8,.21a7,7,0,0,1-3.86-3.68Z" fill="#263238"/>
      <path id="Path_19" data-name="Path 19" d="M155.64,30.61h8.21v6.3l-1.52,12.67h-5.07l-1.62-12.65ZM156,51.5h7.66v6.77l-7.66.05Z" fill="#263238"/>
    </g>
    <g id="_404" data-name="404">
      <path id="Path_20" data-name="Path 20" d="M90.47,116.63a.39.39,0,0,1-.18,0c-4.5-1.74-7.19-3.44-8.59-5.49a5.15,5.15,0,0,1-3.23-.44,6.43,6.43,0,0,1-2.78-2.7,2.56,2.56,0,0,1-2.43.37,6.18,6.18,0,0,1-3-2.41,2.33,2.33,0,0,1-1.55.43c-3-.24-7-6.16-7.29-12.47a.49.49,0,0,1,.47-.52.51.51,0,0,1,.53.48c.27,6,4.11,11.33,6.37,11.51a1.25,1.25,0,0,0,.93-.28,12.25,12.25,0,0,1-1-9.41c.86-3,1.62-4.18,2.53-4,1.72.43,1.5,7,.58,11.29a6,6,0,0,1-.84,2.18,5.46,5.46,0,0,0,2.54,2.21,1.59,1.59,0,0,0,1.68-.35c-.79-1.93-.95-4.57.11-7.94,1.41-4.43,2-4.55,2.31-4.62a.65.65,0,0,1,.64.22c.93,1-.18,7.92-1.34,11.33a4.73,4.73,0,0,1-.56,1.15,5.43,5.43,0,0,0,2.5,2.5,4.39,4.39,0,0,0,2.27.44c-.09-.19-.17-.39-.24-.58-.8-2.15-.41-4.63,1.18-7.58,1.06-2,1.92-2.87,2.71-2.87h0a1.13,1.13,0,0,1,1,.66c.87,1.61.24,6.92-1.49,9.55a3.75,3.75,0,0,1-1.61,1.4c1.33,1.76,3.88,3.32,7.94,4.89a.508.508,0,1,1-.18,1Zm-5.65-16.47s-.57,0-1.83,2.35c-1.44,2.68-1.81,4.89-1.13,6.75.09.23.19.45.3.67a3,3,0,0,0,1.33-1.1c1.4-2.14,2.07-6.54,1.55-8.26-.11-.35-.22-.41-.22-.41ZM77.65,96a21.2,21.2,0,0,0-1.34,3.53,11.28,11.28,0,0,0-.39,6.54,1.25,1.25,0,0,0,.09-.25A33.24,33.24,0,0,0,77.65,96Zm-6.59-3.2c-.17.15-.65.78-1.35,3.22a11.23,11.23,0,0,0,.73,8.24,6.73,6.73,0,0,0,.45-1.4C71.92,98,71.62,93.51,71.06,92.8Z" fill="#263238"/>
      <path id="Path_21" data-name="Path 21" d="M128.49,169a9,9,0,0,1-4.56-1.18.5.5,0,0,1,.51-.87c3.56,2.1,8.17.64,9.12-.89a.89.89,0,0,0,.15-.67,8.14,8.14,0,0,1-5.13-1.47c-2.55-1.59-2.74-2.06-2.73-2.44a.61.61,0,0,1,.34-.52c1-.51,5.51,1.57,7.39,2.81a2.94,2.94,0,0,1,.62.52,3.46,3.46,0,0,0,1.9-1.15,2.76,2.76,0,0,0,.59-1.12h-.2c-1.6.16-3.2-.53-4.91-2.11-1.17-1.08-1.63-1.83-1.48-2.42a.92.92,0,0,1,.72-.66c1.38-.34,4.8,1.11,6.19,2.64a2.84,2.84,0,0,1,.65,1.19c1.3-.62,2.68-2,4.32-4.27a.49.49,0,0,1,.69-.12.5.5,0,0,1,.12.7c-1.89,2.64-3.47,4.13-5,4.74a3.66,3.66,0,0,1-.87,2,4.52,4.52,0,0,1-2.18,1.42,1.84,1.84,0,0,1-.28,1.39C133.57,168,131.15,169,128.49,169Zm-.89-6.93c.34.25.82.58,1.51,1a8.18,8.18,0,0,0,3.6,1.32,24.67,24.67,0,0,0-5.11-2.28Zm3.49-4.25a4.33,4.33,0,0,0,1.17,1.39c1.49,1.37,2.84,2,4.13,1.84l.32-.05a1.91,1.91,0,0,0-.43-.82c-1.41-1.5-4.5-2.48-5.19-2.32Z" fill="#263238"/>
      <path id="Path_23" data-name="Path 23" d="M267.22,88A58.85,58.85,0,0,0,264,73.82a46.151,46.151,0,0,0-7-12.19,40.42,40.42,0,0,0-12.71-10.36q-8-4.4-21.22-6.12-27.44-3.57-42.78,9.74t-20.2,51a139.43,139.43,0,0,0-1,28.35q1,13,4.78,20.93A43.72,43.72,0,0,0,178.58,173q9.46,6.65,25.95,8.8,29.4,3.83,43.57-11.29t18.8-51.1A129,129,0,0,0,267.22,88Z" fill="#407bff"/>
      <path id="Path_24" data-name="Path 24" d="M213.56,171.48c-2.41-.08-5-.3-7.61-.64-9.15-1.2-16.24-3.51-21-6.89a32.61,32.61,0,0,1-11-13.41v-.1c-1.93-4-3.18-9.75-3.74-17a129.628,129.628,0,0,1,.92-26.1C174.61,79.59,182,68,187.54,63.2c6.48-5.62,15.22-8.16,26.73-7.76,2.36.08,4.85.29,7.42.62,7.38,1,13.23,2.6,17.37,4.86a29.8,29.8,0,0,1,9.31,7.48,35.569,35.569,0,0,1,5.35,9.27,47.839,47.839,0,0,1,2.57,11.56A119.189,119.189,0,0,1,256,118c-2.77,21.54-8.12,36.67-15.92,45-5.77,6.17-14.45,9-26.51,8.55Z" fill="#263238"/>
      <path id="Path_25" data-name="Path 25" d="M233.13,88.33l.13-3.78-2.33-.76a21.788,21.788,0,0,0-.62-3.81l2-1.45L231,75l-2.44.2a22.34,22.34,0,0,0-2-3.27l1.26-2.11L225.14,67,223,68.13a23.1,23.1,0,0,0-3.12-2.25l.35-2.42-3.45-1.57-1.59,1.85a23.239,23.239,0,0,0-3.75-.87l-.59-2.38-3.8-.13-.75,2.33a22.65,22.65,0,0,0-3.8.62l-1.47-2-3.55,1.33.19,2.44a23.811,23.811,0,0,0-3.27,2l-2.1-1.26-2.78,2.59,1.12,2.19a22.477,22.477,0,0,0-2.25,3.12l-2.42-.36-1.58,3.46,1.87,1.58a22.478,22.478,0,0,0-.88,3.75l-2.38.6-.13,3.79,2.33.76a23.541,23.541,0,0,0,.62,3.8l-2,1.46,1.34,3.56,2.44-.2a22,22,0,0,0,2,3.27l-1.26,2.11,2.59,2.77,2.18-1.12a22.648,22.648,0,0,0,3.13,2.26l-.37,2.42,3.46,1.57,1.6-1.86a21.8,21.8,0,0,0,3.75.88l.59,2.37,3.8.13.75-2.32a23.719,23.719,0,0,0,3.8-.62l1.45,2,3.56-1.33-.19-2.44a23,23,0,0,0,3.28-2l2.09,1.27,2.78-2.59-1.11-2.19a23.1,23.1,0,0,0,2.25-3.12l2.42.36,1.58-3.46-1.87-1.58a23.127,23.127,0,0,0,.88-3.76Zm-25.6,12.28a15,15,0,1,1,10.785-4.026,15,15,0,0,1-10.785,4.026Z" fill="#407bff"/>
      <path id="Path_26" data-name="Path 26" d="M248.92,157.91l.27-2.55-1.53-.63a17.189,17.189,0,0,0-.23-2.59l1.4-.89-.71-2.47h-1.67a15.271,15.271,0,0,0-1.19-2.31l1-1.36-1.61-2-1.53.63a16.131,16.131,0,0,0-2-1.67l.37-1.62-2.25-1.24L238,140.42a14.78,14.78,0,0,0-2.47-.79l-.29-1.63-2.55-.29-.63,1.53a17.322,17.322,0,0,0-2.59.24l-.89-1.41-2.47.72v1.67a16.281,16.281,0,0,0-2.31,1.19l-1.36-1-2,1.61.64,1.53a17.069,17.069,0,0,0-1.67,2l-1.61-.36-1.24,2.25,1.18,1.17a16,16,0,0,0-.79,2.49l-1.63.27-.28,2.55,1.53.64a16,16,0,0,0,.23,2.58l-1.41.89.72,2.47h1.67a15.664,15.664,0,0,0,1.19,2.3l-1,1.36,1.61,2,1.54-.65a16.13,16.13,0,0,0,2,1.67l-.37,1.62,2.25,1.24,1.18-1.18a15.832,15.832,0,0,0,2.48.78l.28,1.63,2.55.29.63-1.53a17.451,17.451,0,0,0,2.59-.24l.89,1.41,2.46-.73v-1.66a16.279,16.279,0,0,0,2.31-1.19l1.35,1,2-1.61-.65-1.53a17.142,17.142,0,0,0,1.68-2l1.61.36,1.24-2.25-1.18-1.17a17.64,17.64,0,0,0,.78-2.47Zm-12.88-1a3.13,3.13,0,1,0-.04.01Z" fill="#407bff" opacity="0.3"/>
      <path id="Path_27" data-name="Path 27" d="M263.08,114.7l-3-2.06h0a15.919,15.919,0,0,0-1.2-3.1l.76-3-4.32-4.63-3,.56a16,16,0,0,0-3-1.41h0l-1.85-3.12-6.33-.22-2.06,3h0a16.39,16.39,0,0,0-3.11,1.19l-3-.76-4.63,4.32.55,3h0a16.7,16.7,0,0,0-1.41,3l-3.11,1.85-.22,6.33,3,2.06a15.46,15.46,0,0,0,1.19,3.12h0l-.76,3,4.32,4.63,3-.56a15.579,15.579,0,0,0,3,1.41h0l1.85,3.11,6.33.21,2.06-3a17.511,17.511,0,0,0,3.12-1.2h0l3,.76,4.63-4.33-.56-3a15.679,15.679,0,0,0,1.41-3h0l3.12-1.85Zm-19.73,9.62a7.12,7.12,0,1,1,5.109-1.907,7.12,7.12,0,0,1-5.109,1.907Z" fill="#fff"/>
      <path id="Path_28" data-name="Path 28" d="M284.84,64.17l.52-1.25h0a6,6,0,0,0,1-.68h1.17l1.36-2-.45-1.07a6.18,6.18,0,0,0,.28-1.22h0l1-.93-.42-2.34-1.26-.52h0a5.729,5.729,0,0,0-.68-1.05V51.95l-1.95-1.36-1.07.44h0a6.5,6.5,0,0,0-1.22-.27l-.93-1-2.34.42-.52,1.25a5.771,5.771,0,0,0-1.05.69h0l-1.16-.05-1.36,2,.44,1.06a6.448,6.448,0,0,0-.2,1.27h0l-1,.93.41,2.34,1.26.52a5.77,5.77,0,0,0,.69,1.05h0l-.05,1.16,1.95,1.36,1.08-.45a5.55,5.55,0,0,0,1.22.28h0l.92,1Zm-5.09-6.49a2.67,2.67,0,1,1,1.1,1.729,2.67,2.67,0,0,1-1.1-1.729Z" fill="#407bff"/>
      <path id="Path_29" data-name="Path 29" d="M257.4,57.54l-.76-.65a20,20,0,0,1,6-5l.47.89a19.14,19.14,0,0,0-5.71,4.76Z" fill="#407bff"/>
      <path id="Path_30" data-name="Path 30" d="M265.38,51.85l-.39-.92a23.92,23.92,0,0,1,11.74-1.88l-.09,1a22.72,22.72,0,0,0-11.26,1.8Z" fill="#407bff"/>
      <path id="Path_31" data-name="Path 31" d="M263.5,58.77l-.83-.57a16.77,16.77,0,0,1,9.87-6.38l.19,1a15.67,15.67,0,0,0-9.23,5.95Z" fill="#407bff"/>
      <path id="Path_32" data-name="Path 32" d="M197.14,155a.48.48,0,0,1-.36-.15l-2.1-2.16a17.669,17.669,0,0,1-3.15-.59l-3.26,1.45a.51.51,0,0,1-.48,0l-5.48-3.63a.53.53,0,0,1-.22-.43v-3.56a18,18,0,0,1-1.76-2.68l-2.81-1.09a.51.51,0,0,1-.31-.36l-1.3-6.44a.49.49,0,0,1,.14-.46l2.16-2.09a17.671,17.671,0,0,1,.59-3.15l-1.44-3.27a.49.49,0,0,1,0-.48l3.63-5.47a.47.47,0,0,1,.42-.23l3.56.06a18.26,18.26,0,0,1,2.68-1.77l1.09-2.8a.49.49,0,0,1,.37-.31l6.43-1.31a.52.52,0,0,1,.46.14l2.1,2.16a17.839,17.839,0,0,1,3.15.59l3.26-1.44a.51.51,0,0,1,.48,0l5.47,3.63a.48.48,0,0,1,.23.42l-.06,3.57a17.659,17.659,0,0,1,1.77,2.67l2.81,1.09a.51.51,0,0,1,.3.37l1.31,6.44a.53.53,0,0,1-.14.46l-2.16,2.09a18.188,18.188,0,0,1-.59,3.15l1.44,3.27a.47.47,0,0,1,0,.47l-3.63,5.48a.51.51,0,0,1-.42.22l-3.56-.05a18,18,0,0,1-2.68,1.76L204,153.38a.51.51,0,0,1-.37.31l-6.43,1.3Zm-5.64-3.93a.35.35,0,0,1,.14,0,16.659,16.659,0,0,0,3.31.61.5.5,0,0,1,.32.15l2,2.1,5.91-1.2,1.06-2.73a.45.45,0,0,1,.23-.26,17.139,17.139,0,0,0,2.82-1.85.37.37,0,0,1,.32-.11l3.47.05,3.33-5L213,139.65a.56.56,0,0,1,0-.34,17.229,17.229,0,0,0,.62-3.31.5.5,0,0,1,.15-.32l2.1-2-1.2-5.9L212,126.69a.51.51,0,0,1-.26-.24,16.1,16.1,0,0,0-1.86-2.81.54.54,0,0,1-.11-.32l.05-3.48-5-3.32-3.17,1.4a.57.57,0,0,1-.34,0,17.19,17.19,0,0,0-3.32-.62.46.46,0,0,1-.32-.15l-2-2.09-5.9,1.19-1,2.73a.51.51,0,0,1-.24.26,17,17,0,0,0-2.82,1.86.48.48,0,0,1-.32.11h-3.47l-3.33,5,1.4,3.18a.48.48,0,0,1,0,.42,17.38,17.38,0,0,0-.58,3.24.46.46,0,0,1-.15.31l-2.1,2,1.2,5.9,2.73,1.06a.51.51,0,0,1,.27.25,16.5,16.5,0,0,0,1.84,2.8.47.47,0,0,1,.12.32l-.06,3.47,5,3.33,3.19-1.4A.457.457,0,0,1,191.5,151.07Zm4.92-3.23a13.32,13.32,0,0,1-11.09-20.68h0a13.32,13.32,0,1,1,11.09,20.68Zm-10.26-20.13a12.33,12.33,0,1,0,17.09-3.478,12.33,12.33,0,0,0-17.09,3.478Z" fill="#fff"/>
    </g>
    <g id="Character" transform="translate(0 -0.305)">
      <path id="Path_46" data-name="Path 46" d="M184.24,249.89c1.39-22.4-1.16-63.13,40.95-57.74,45.13,5.78,32.22,58.56,32.22,58.56Z" fill="#263238"/>
      <circle id="Ellipse_1" data-name="Ellipse 1" cx="18.38" cy="18.38" r="18.38" transform="translate(194.93 199.67)" fill="#fff"/>
      <path id="Path_47" data-name="Path 47" d="M215.72,199.7c-8.7-1.49-18,4.93-18.93,11.43l34.51,3.17C230.08,206.89,222.63,200.88,215.72,199.7Z" fill="#263238"/>
      <path id="Path_48" data-name="Path 48" d="M227.37,217.59c-.25,4.8-2.87,8.57-5.85,8.42s-5.2-4.17-5-9,2.86-8.58,5.84-8.43S227.62,212.79,227.37,217.59Z" fill="#263238"/>
      <path id="Path_49" data-name="Path 49" d="M213.31,237.42a19.38,19.38,0,1,1,19.37-19.373A19.38,19.38,0,0,1,213.31,237.42Zm0-36.75a17.38,17.38,0,1,0,17.37,17.377,17.38,17.38,0,0,0-17.37-17.377Z" fill="#407bff"/>
      <path id="Path_50" data-name="Path 50" d="M252.28,249.32h-.12a.5.5,0,0,1-.37-.6c0-.14,3.22-13.7-.09-27.41a.513.513,0,0,1,1-.23c3.37,14,.13,27.73.09,27.87a.49.49,0,0,1-.51.37Z" fill="#fff" opacity="0.3"/>
      <path id="Path_51" data-name="Path 51" d="M249.49,213.81a.49.49,0,0,1-.45-.3,35.14,35.14,0,0,0-4.75-7.65.5.5,0,0,1,.78-.64A36.731,36.731,0,0,1,250,213.1a.5.5,0,0,1-.25.66.54.54,0,0,1-.26.05Z" fill="#fff" opacity="0.3"/>
      <path id="Path_52" data-name="Path 52" d="M90.53,355h-.37a5,5,0,0,1,.27-10h.1c2.89,0,9.84-3.51,24.37-26.43a5,5,0,0,1,7.51-1.09,206.329,206.329,0,0,0,37.15,25.47,5,5,0,1,1-4.53,8.92,213.367,213.367,0,0,1-34.8-23.15C108.05,347,99,355,90.53,355Z" fill="#263238"/>
      <path id="Path_53" data-name="Path 53" d="M121.46,316.55a2.96,2.96,0,0,1-2.97-3.4c.71-5-.17-23.62-6.47-38.12a3,3,0,0,1,1.06-3.68c13.69-9.33,42.87-10.45,44.11-10.49a3,3,0,0,1,.21,6c-.27,0-25.78,1-38.89,8.2,5.58,14.44,6.85,32.44,5.92,39A3,3,0,0,1,121.46,316.55Z" fill="#263238"/>
      <path id="Path_54" data-name="Path 54" d="M126.5,312.66c-2-4.7-11-4.17-16.26-.14-2.83,2.16-6.65,8.65-7,11a3.54,3.54,0,0,0,4,4.23c3.44-.29,8.18-5.3,8.18-5.3-3.15,3.08.91,5.26,7,.8C125.74,320.77,128.74,317.93,126.5,312.66Z" fill="#407bff"/>
      <path id="Path_55" data-name="Path 55" d="M298.5,251.21h-.14a.5.5,0,0,1-.34-.62c1.33-4.64,2.79-7.47,4.7-9a5.17,5.17,0,0,1,.15-3.26,6.4,6.4,0,0,1,2.36-3,2.58,2.58,0,0,1-.59-2.39,6.18,6.18,0,0,1,2.14-3.15,2.29,2.29,0,0,1-.57-1.51c0-3,5.51-7.52,11.76-8.38a.49.49,0,0,1,.57.43.51.51,0,0,1-.43.56c-5.94.81-10.92,5.11-10.9,7.38a1.27,1.27,0,0,0,.36.9,12.31,12.31,0,0,1,9.29-1.86c3.06.59,4.31,1.24,4.17,2.17-.27,1.75-6.81,2.11-11.19,1.59a6.26,6.26,0,0,1-2.25-.64,5.38,5.38,0,0,0-2,2.73,1.58,1.58,0,0,0,.49,1.63c1.86-.95,4.47-1.35,7.92-.59,4.54,1,4.71,1.55,4.81,1.88a.67.67,0,0,1-.16.66c-1,1-7.91.54-11.4-.32a4.692,4.692,0,0,1-1.2-.45,5.47,5.47,0,0,0-2.27,2.71,4.31,4.31,0,0,0-.23,2.3,6,6,0,0,1,.56-.3c2.06-1,4.57-.81,7.65.51,2,.87,3,1.65,3.1,2.44a1.11,1.11,0,0,1-.57,1c-1.52,1-6.87.86-9.65-.62a3.92,3.92,0,0,1-1.53-1.49c-1.64,1.49-3,4.17-4.16,8.36a.49.49,0,0,1-.45.33Zm5.42-9.33a3,3,0,0,0,1.22,1.21c2.26,1.21,6.7,1.48,8.37.81.34-.14.39-.25.39-.25s-.06-.57-2.5-1.61c-2.81-1.2-5-1.37-6.84-.52A5.157,5.157,0,0,0,303.92,241.88Zm3.34-6.57.26.07a33,33,0,0,0,9.93.74,24,24,0,0,0-3.64-1,11.28,11.28,0,0,0-6.55.19Zm1.26-5.62A7,7,0,0,0,310,230c5,.59,9.38-.11,10-.73-.17-.15-.84-.58-3.33-1.06a11.27,11.27,0,0,0-8.15,1.48Z" fill="#263238"/>
      <path id="Path_56" data-name="Path 56" d="M168.32,353.3c.66-.22.44-.85-.3-.85H154.48c-25.78-2.73-43.79.93-32.44,1.79s-.8.68-9.09,3.82,61.66,3.92,68,0C186.83,354.44,159.18,356.22,168.32,353.3Z" fill="#263238"/>
      <path id="Path_57" data-name="Path 57" d="M265.26,357.29l-117.8-3.91-4.89-114.22,139.11,3.11Z" fill="#407bff"/>
      <path id="Path_58" data-name="Path 58" d="M184.24,355.1a.5.5,0,0,1-.49-.46L174.3,239.92a.51.51,0,0,1,.46-.54.5.5,0,0,1,.54.46l9.44,114.72a.49.49,0,0,1-.45.54Z" fill="#263238"/>
      <path id="Path_59" data-name="Path 59" d="M265.26,357.29l31.66-4.83,9.98-106.2-25.22-3.99Z" fill="#407bff"/>
      <path id="Path_60" data-name="Path 60" d="M265.26,357.29l31.66-4.83,9.98-106.2-25.22-3.99Z" opacity="0.2"/>
      <path id="Path_61" data-name="Path 61" d="M157.53,331.36l-2.91-67.86a12.27,12.27,0,0,1,12.53-12.79l88.06,2a12.28,12.28,0,0,1,11.88,14l-9.77,68.39a12.26,12.26,0,0,1-12.55,10.53l-75.39-2.5a12.27,12.27,0,0,1-11.85-11.77Z" fill="#263238"/>
      <path id="Path_62" data-name="Path 62" d="M167,271.54l13.62.43-.11,3.51-8.53-.27-.08,2.62,7.91.25-.1,3.35-7.92-.25-.1,3.24,8.78.28-.12,3.73L166.52,288Z" fill="#fff"/>
      <path id="Path_63" data-name="Path 63" d="M183.19,288.52l.53-16.45,8.47.27a12.57,12.57,0,0,1,3.59.51,3.87,3.87,0,0,1,2,1.57,4.52,4.52,0,0,1,.68,2.69,4.59,4.59,0,0,1-.66,2.34,4.53,4.53,0,0,1-1.7,1.55,5.83,5.83,0,0,1-1.8.59,5.32,5.32,0,0,1,1.3.65,5.729,5.729,0,0,1,.79.89,7.181,7.181,0,0,1,.68,1.05l2.31,4.84-5.75-.18-2.56-5.11a3.6,3.6,0,0,0-.88-1.3A2.05,2.05,0,0,0,189,282h-.45l-.21,6.68Zm5.42-9.62,2.14.06a7.18,7.18,0,0,0,1.36-.18,1.31,1.31,0,0,0,.84-.49,1.51,1.51,0,0,0,.35-.94,1.49,1.49,0,0,0-.47-1.24,3,3,0,0,0-1.88-.49l-2.23-.07Z" fill="#fff"/>
      <path id="Path_64" data-name="Path 64" d="M201.07,289.09l.52-16.45,8.48.26a12.57,12.57,0,0,1,3.59.52,3.87,3.87,0,0,1,2,1.57,4.64,4.64,0,0,1-1.64,6.59,6.181,6.181,0,0,1-1.81.59,5.08,5.08,0,0,1,1.31.65,5.321,5.321,0,0,1,.78.89,6,6,0,0,1,.68,1.05l2.31,4.84-5.74-.18L209,284.31a3.73,3.73,0,0,0-.88-1.3,2.08,2.08,0,0,0-1.23-.42h-.45l-.21,6.68Zm5.42-9.63,2.14.07a7.21,7.21,0,0,0,1.35-.18,1.4,1.4,0,0,0,.85-.49,1.57,1.57,0,0,0,.35-.94,1.53,1.53,0,0,0-.47-1.24,3,3,0,0,0-1.88-.49l-2.24-.07Z" fill="#fff"/>
      <path id="Path_65" data-name="Path 65" d="M218.11,281.41a7.78,7.78,0,0,1,8.77-8.25,8.59,8.59,0,0,1,6.25,2.41,8.3,8.3,0,0,1,2,6.24,10.05,10.05,0,0,1-1.12,4.7,7,7,0,0,1-2.9,2.79,9.28,9.28,0,0,1-4.6.88,10.51,10.51,0,0,1-4.58-1,6.92,6.92,0,0,1-2.87-2.9A9.31,9.31,0,0,1,218.11,281.41Zm5.08.18a5.57,5.57,0,0,0,.81,3.61,3.494,3.494,0,0,0,5.06.17,6.09,6.09,0,0,0,1-3.8,5.09,5.09,0,0,0-.83-3.42,3.21,3.21,0,0,0-2.51-1.15,3,3,0,0,0-2.5,1A5.51,5.51,0,0,0,223.19,281.59Z" fill="#fff"/>
      <path id="Path_66" data-name="Path 66" d="M237.7,290.25l.52-16.45,8.48.27a12.22,12.22,0,0,1,3.59.52,3.86,3.86,0,0,1,2,1.56,4.64,4.64,0,0,1-1.64,6.59,6.16,6.16,0,0,1-1.81.6,5.08,5.08,0,0,1,1.31.65,4.92,4.92,0,0,1,.78.89,6.433,6.433,0,0,1,.68,1l2.31,4.85-5.74-.19-2.56-5.11a3.94,3.94,0,0,0-.88-1.3,2.22,2.22,0,0,0-1.23-.42H243l-.21,6.68Zm5.42-9.62,2.14.07a9.553,9.553,0,0,0,1.35-.18,1.4,1.4,0,0,0,.85-.49,1.6,1.6,0,0,0,.35-.95,1.54,1.54,0,0,0-.47-1.24,3.11,3.11,0,0,0-1.88-.48l-2.24-.08Z" fill="#fff"/>
      <path id="Path_67" data-name="Path 67" d="M245.79,318.21a1.34,1.34,0,0,1-1-.43l-8.56-9.37L227,316.85a1.31,1.31,0,0,1-1.85-.08l-8.56-9.37-9.24,8.44a1.3,1.3,0,0,1-1.85-.09l-8.5-9.37-9.24,8.44a1.33,1.33,0,0,1-.94.35,1.31,1.31,0,0,1-.91-.43l-8.56-9.37-9.24,8.44a1.313,1.313,0,0,1-1.77-1.94l10.2-9.32a1.32,1.32,0,0,1,1.86.08l8.56,9.37,9.24-8.44a1.32,1.32,0,0,1,1.85.08l8.56,9.37,9.24-8.44a1.3,1.3,0,0,1,1.85.09l8.56,9.37,9.24-8.44a1.3,1.3,0,0,1,1.85.08L246.76,316a1.32,1.32,0,0,1-1,2.2Z" fill="#fff"/>
      <path id="Path_68" data-name="Path 68" d="M87.54,359.71l-6.26-2.98L75.7,329.56l3.03-3.33Z" fill="#407bff"/>
      <path id="Path_69" data-name="Path 69" d="M87.54,359.71l8.31-4.85-7.12-22.38-10-6.25Z" fill="#407bff"/>
      <path id="Path_70" data-name="Path 70" d="M87.54,359.71l8.31-4.85-7.12-22.38-10-6.25Z" opacity="0.2"/>
      <path id="Path_71" data-name="Path 71" d="M223.74,364.65h-.69a5,5,0,0,1,.28-10c7.7.25,24-4.48,33.31-13.52a5,5,0,0,1,2.05-1.2c15.79-4.74,21.66,4.83,21.91,5.24l-8.6,5.09a1,1,0,0,0,.11.18c-.09-.13-2.33-3-9.45-1.24C251,359.87,233,364.65,223.74,364.65Z" fill="#263238"/>
      <path id="Path_72" data-name="Path 72" d="M223.19,371.3l-18.22-1.15-1.43-33.57,24.47.91Z" fill="#407bff"/>
      <path id="Path_73" data-name="Path 73" d="M223.19,371.3l4.25-4.24,2.64-20.93-2.07-8.64Z" fill="#407bff"/>
      <path id="Path_74" data-name="Path 74" d="M223.19,371.3l4.25-4.24,2.64-20.93-2.07-8.64Z" opacity="0.2"/>
      <path id="Path_75" data-name="Path 75" d="M328.7,358.58a2.93,2.93,0,0,1-1.81-.61c-10.39-7.9-24.45-21.92-29.84-35.45a3.351,3.351,0,0,1-.17-.62c-2.63-15.63-5.14-48.54-5.24-49.93a3.008,3.008,0,0,1,6-.45c0,.33,2.56,33.56,5.13,49.07,5.37,13.15,19.95,26.66,27.77,32.61a3,3,0,0,1-1.82,5.38Z" fill="#263238"/>
      <path id="Path_76" data-name="Path 76" d="M342.57,360.1c-2.32,0-4.95-1.05-7.81-3.12a3,3,0,0,1,3.51-4.87c2.48,1.8,3.83,2,4.3,2a3,3,0,0,1,0,6Z" fill="#263238"/>
      <path id="Path_77" data-name="Path 77" d="M335.6,356.89c3.21-9.54,16.37-7.65,20.9-6.24a48.168,48.168,0,0,1,11.07,4.81c2.45,1.6,2.49,4.28-.78,5.81-4,1.89-14.16.22-14.16.22,5.24,2.29,0,6-9.21,2.36C340.43,362.67,334.46,360.38,335.6,356.89Z" fill="#407bff"/>
      <path id="Path_78" data-name="Path 78" d="M303.65,276.08c-1.19,8.11-7.9,14.08-13.35,13.28s-5.69-8-4.5-16.14,3.35-14,8.81-13.2S304.85,268,303.65,276.08Z" fill="#263238"/>
      <circle id="Ellipse_2" data-name="Ellipse 2" cx="0.82" cy="0.82" r="0.82" transform="translate(170.85 242.1)" fill="#263238"/>
      <path id="Path_79" data-name="Path 79" d="M180,248.83a.82.82,0,1,1-.82-.82.82.82,0,0,1,.82.82Z" fill="#263238"/>
      <path id="Path_80" data-name="Path 80" d="M180.92,345.73a.82.82,0,1,1-.82-.82.82.82,0,0,1,.82.82Z" fill="#263238"/>
      <path id="Path_81" data-name="Path 81" d="M188.43,351.63a.82.82,0,1,1-.82-.82A.82.82,0,0,1,188.43,351.63Z" fill="#263238"/>
    </g>
    <g id="Robot_Parts" data-name="Robot Parts" transform="translate(0 -0.305)">
      <path id="Path_82" data-name="Path 82" d="M44.3,361.47a9.67,9.67,0,0,1-7.33-4,.5.5,0,0,1,.13-.7.49.49,0,0,1,.69.13c1.87,2.69,6,4.13,7.81,3.28a1.35,1.35,0,0,0,.46-.34,6.05,6.05,0,0,1-3.52-4.48c-.23-1.27-.41-3,.64-3.22,1.43-.32,3.31,3.15,4,5.78a3.53,3.53,0,0,1,.13,1.34,4.47,4.47,0,0,0,1.79.14,1.92,1.92,0,0,0,1.37-.74,5.87,5.87,0,0,1-2.3-4.19c-.39-2.74-.1-3.21.2-3.45a.68.68,0,0,1,.69-.08c1.07.46,2.37,4.34,2.61,6.53a3.3,3.3,0,0,1,0,.7,3.9,3.9,0,0,0,1.34.26,4.37,4.37,0,0,0,2.41-.63,3.8,3.8,0,0,1-.4-.3c-1-.88-1.45-2.3-1.28-4.33.14-1.56.49-2.42,1.13-2.69a1.12,1.12,0,0,1,1.2.24,6.92,6.92,0,0,1,1.73,5.56,3.08,3.08,0,0,1-.5,1.15,18.48,18.48,0,0,0,6.64-.75.48.48,0,0,1,.6.36.5.5,0,0,1-.36.61c-2.71.67-5.63,1.21-7.69.62a5.7,5.7,0,0,1-3.5,1.16,4.77,4.77,0,0,1-1.63-.31,2.82,2.82,0,0,1-2.13,1.27,5.35,5.35,0,0,1-2.24-.19,2.27,2.27,0,0,1-1,.89A4.16,4.16,0,0,1,44.3,361.47Zm-.86-8.28a4.45,4.45,0,0,0,.08,2,5.07,5.07,0,0,0,2.84,3.71,2.8,2.8,0,0,0-.11-.71C45.46,355.37,44,353.4,43.44,353.19Zm5.57-.87a13.44,13.44,0,0,0,.18,2.06,5.15,5.15,0,0,0,1.52,3.22A15.93,15.93,0,0,0,49,352.32Zm6.29-.87h0s-.38.19-.52,1.86.16,2.82.93,3.48a2.651,2.651,0,0,0,.6.38,2.06,2.06,0,0,0,.54-1,6.26,6.26,0,0,0-1.19-4.43C55.46,351.49,55.33,351.45,55.3,351.45Z" fill="#263238"/>
      <path id="Path_83" data-name="Path 83" d="M190.67,369.02l2.71-4.7-2.71-4.69h-2.91l1.64,4.69-1.64,4.7Z" fill="#263238"/>
      <path id="Path_84" data-name="Path 84" d="M188,366.78a2.45,2.45,0,1,1,0-4.89l-4.61-.93-1.22,3.72,2.05,3.14Z" fill="#263238"/>
      <path id="Path_85" data-name="Path 85" d="M188.35,359.63h-5.43l-2.71,4.7,2.71,4.7h5.43l2.71-4.7Zm-2.71,7.15a2.45,2.45,0,1,1,2.44-2.45,2.45,2.45,0,0,1-2.44,2.45Z" fill="#407bff"/>
      <path id="Path_86" data-name="Path 86" d="M379.68,359.31l-2.01-3.49,2.01-3.49h2.16l-1.22,3.49,1.22,3.49Z" fill="#407bff"/>
      <path id="Path_87" data-name="Path 87" d="M381.7,357.64a1.82,1.82,0,0,0,0-3.63l3.42-.69.9,2.77-1.52,2.33Z" fill="#407bff"/>
      <path id="Path_88" data-name="Path 88" d="M381.4,352.33h4l2,3.49-2,3.49h-4l-2-3.49Zm2,5.31a1.833,1.833,0,1,1,.02,0Z" fill="#263238"/>
      <path id="Path_89" data-name="Path 89" d="M304.74,364h4.52a2.15,2.15,0,0,0,2.14-2.14h0a2.14,2.14,0,0,0-2.14-2.14h-4.52a2.14,2.14,0,0,0-2.14,2.14h0A2.15,2.15,0,0,0,304.74,364Z" fill="#263238"/>
      <path id="Path_90" data-name="Path 90" d="M297.52,359.91a4.46,4.46,0,1,1,2,6.18,4.6,4.6,0,0,1-2-6.18Z" fill="#407bff"/>
      <rect id="Rectangle_8" data-name="Rectangle 8" width="1.37" height="10.1" transform="translate(299.989 366.67) rotate(-154.76)" fill="#263238"/>
    </g>
  </g>
</svg>
